<svg width="22" height="22" viewBox="0 0 22 22" fill="none" xmlns="http://www.w3.org/2000/svg">
<path fill-rule="evenodd" clip-rule="evenodd" d="M14.1938 6.26965C15.2037 6.26965 16.0225 7.08836 16.0225 8.0983C16.0225 8.43495 15.7496 8.70785 15.4129 8.70785C15.0762 8.70785 14.8034 8.43495 14.8034 8.0983C14.8034 7.76166 14.5305 7.48875 14.1938 7.48875H11.7556V10.6174L14.4524 11.0026C15.3533 11.1313 16.0225 11.9029 16.0225 12.8129V14.1938C16.0225 15.2037 15.2037 16.0224 14.1938 16.0224H11.7556V17.2415C11.7556 17.5782 11.4827 17.8511 11.1461 17.8511C10.8094 17.8511 10.5365 17.5782 10.5365 17.2415V16.0224H8.09831C7.0884 16.0224 6.26966 15.2037 6.26966 14.1938C6.26966 13.8572 6.54254 13.5842 6.87921 13.5842C7.21587 13.5842 7.48876 13.8572 7.48876 14.1938C7.48876 14.5304 7.76164 14.8033 8.09831 14.8033H10.5365V11.6747L7.83971 11.2895C6.93882 11.1608 6.26966 10.3892 6.26966 9.47919V8.0983C6.26966 7.08836 7.0884 6.26965 8.09831 6.26965H10.5365V5.05055C10.5365 4.71391 10.8094 4.441 11.1461 4.441C11.4827 4.441 11.7556 4.71391 11.7556 5.05055V6.26965H14.1938ZM10.5365 7.48875H8.09831C7.76164 7.48875 7.48876 7.76166 7.48876 8.0983V9.47919C7.48876 9.78253 7.71181 10.0397 8.01208 10.0826L10.5365 10.4432V7.48875ZM11.7556 11.8489V14.8033H14.1938C14.5305 14.8033 14.8034 14.5304 14.8034 14.1938V12.8129C14.8034 12.5096 14.5803 12.2524 14.28 12.2095L11.7556 11.8489Z" fill="white"/>
<path fill-rule="evenodd" clip-rule="evenodd" d="M11 0C8.82444 0 6.69765 0.645138 4.88873 1.85383C3.07981 3.06253 1.66989 4.7805 0.837369 6.79048C0.00476576 8.80047 -0.213101 11.0122 0.211407 13.146C0.63583 15.2798 1.68349 17.2398 3.22182 18.7782C4.76024 20.3165 6.72019 21.3642 8.85404 21.7886C10.9878 22.2131 13.1995 21.9952 15.2095 21.1627C17.2195 20.3301 18.9375 18.9202 20.1462 17.1113C21.3549 15.3023 22 13.1756 22 11C21.9976 8.08336 20.8379 5.28686 18.7755 3.22449C16.7131 1.16211 13.9167 0.00241294 11 0ZM11 20.5018C9.12071 20.5018 7.28365 19.9445 5.72108 18.9004C4.15851 17.8564 2.94069 16.3724 2.22153 14.6362C1.50236 12.8999 1.31418 10.9895 1.68086 9.1463C2.04745 7.30314 2.95242 5.61008 4.28122 4.28124C5.61011 2.95239 7.30312 2.04744 9.14631 1.68081C10.9895 1.31418 12.9 1.50235 14.6362 2.22151C16.3724 2.94068 17.8564 4.15854 18.9005 5.7211C19.9445 7.28366 20.5018 9.12073 20.5018 11C20.5005 13.5196 19.499 15.9357 17.7174 17.7174C15.9357 19.499 13.5196 20.5005 11 20.5018Z" fill="white"/>
</svg>
